<mxfile host="app.diagrams.net" modified="2023-05-30T04:37:53.145Z" agent="Mozilla/5.0 (Windows NT 10.0; Win64; x64) AppleWebKit/537.36 (KHTML, like Gecko) Chrome/113.0.0.0 Safari/537.36" etag="FDMVMnXNS1ksMp-_lc4K" version="21.2.9" type="github">
  <diagram id="UJW8BsHhRWXL99hhLTpa" name="Page-1">
    <mxGraphModel dx="1235" dy="684" grid="1" gridSize="10" guides="1" tooltips="1" connect="1" arrows="1" fold="1" page="1" pageScale="1" pageWidth="827" pageHeight="1169" math="0" shadow="0">
      <root>
        <mxCell id="0" />
        <mxCell id="1" parent="0" />
        <mxCell id="3nR2WSMcB-iqKct5DBk3-39" style="edgeStyle=orthogonalEdgeStyle;rounded=0;orthogonalLoop=1;jettySize=auto;html=1;exitX=0.5;exitY=1;exitDx=0;exitDy=0;entryX=0.5;entryY=0;entryDx=0;entryDy=0;" edge="1" parent="1" source="3nR2WSMcB-iqKct5DBk3-1" target="3nR2WSMcB-iqKct5DBk3-4">
          <mxGeometry relative="1" as="geometry" />
        </mxCell>
        <mxCell id="3nR2WSMcB-iqKct5DBk3-1" value="Main Menu" style="rounded=0;whiteSpace=wrap;html=1;" vertex="1" parent="1">
          <mxGeometry x="200" y="260" width="100" height="40" as="geometry" />
        </mxCell>
        <mxCell id="3nR2WSMcB-iqKct5DBk3-23" style="edgeStyle=orthogonalEdgeStyle;rounded=0;orthogonalLoop=1;jettySize=auto;html=1;exitX=1;exitY=0.5;exitDx=0;exitDy=0;entryX=0;entryY=0.5;entryDx=0;entryDy=0;" edge="1" parent="1" source="3nR2WSMcB-iqKct5DBk3-4" target="3nR2WSMcB-iqKct5DBk3-12">
          <mxGeometry relative="1" as="geometry" />
        </mxCell>
        <mxCell id="3nR2WSMcB-iqKct5DBk3-4" value="Main Game" style="rounded=0;whiteSpace=wrap;html=1;" vertex="1" parent="1">
          <mxGeometry x="200" y="320" width="100" height="40" as="geometry" />
        </mxCell>
        <mxCell id="3nR2WSMcB-iqKct5DBk3-31" style="edgeStyle=orthogonalEdgeStyle;rounded=0;orthogonalLoop=1;jettySize=auto;html=1;exitX=0.5;exitY=0;exitDx=0;exitDy=0;entryX=0.5;entryY=1;entryDx=0;entryDy=0;" edge="1" parent="1" source="3nR2WSMcB-iqKct5DBk3-5" target="3nR2WSMcB-iqKct5DBk3-8">
          <mxGeometry relative="1" as="geometry" />
        </mxCell>
        <mxCell id="3nR2WSMcB-iqKct5DBk3-5" value="Stage 8" style="rounded=0;whiteSpace=wrap;html=1;" vertex="1" parent="1">
          <mxGeometry x="470" y="500" width="100" height="40" as="geometry" />
        </mxCell>
        <mxCell id="3nR2WSMcB-iqKct5DBk3-35" style="edgeStyle=orthogonalEdgeStyle;rounded=0;orthogonalLoop=1;jettySize=auto;html=1;exitX=0.5;exitY=0;exitDx=0;exitDy=0;entryX=0.5;entryY=1;entryDx=0;entryDy=0;" edge="1" parent="1" source="3nR2WSMcB-iqKct5DBk3-6" target="3nR2WSMcB-iqKct5DBk3-9">
          <mxGeometry relative="1" as="geometry" />
        </mxCell>
        <mxCell id="3nR2WSMcB-iqKct5DBk3-6" value="Stage 11" style="rounded=0;whiteSpace=wrap;html=1;" vertex="1" parent="1">
          <mxGeometry x="470" y="320" width="100" height="40" as="geometry" />
        </mxCell>
        <mxCell id="3nR2WSMcB-iqKct5DBk3-33" style="edgeStyle=orthogonalEdgeStyle;rounded=0;orthogonalLoop=1;jettySize=auto;html=1;exitX=0.5;exitY=0;exitDx=0;exitDy=0;entryX=0.5;entryY=1;entryDx=0;entryDy=0;" edge="1" parent="1" source="3nR2WSMcB-iqKct5DBk3-7" target="3nR2WSMcB-iqKct5DBk3-6">
          <mxGeometry relative="1" as="geometry" />
        </mxCell>
        <mxCell id="3nR2WSMcB-iqKct5DBk3-7" value="Stage 10" style="rounded=0;whiteSpace=wrap;html=1;" vertex="1" parent="1">
          <mxGeometry x="470" y="380" width="100" height="40" as="geometry" />
        </mxCell>
        <mxCell id="3nR2WSMcB-iqKct5DBk3-32" style="edgeStyle=orthogonalEdgeStyle;rounded=0;orthogonalLoop=1;jettySize=auto;html=1;exitX=0.5;exitY=0;exitDx=0;exitDy=0;entryX=0.5;entryY=1;entryDx=0;entryDy=0;" edge="1" parent="1" source="3nR2WSMcB-iqKct5DBk3-8" target="3nR2WSMcB-iqKct5DBk3-7">
          <mxGeometry relative="1" as="geometry" />
        </mxCell>
        <mxCell id="3nR2WSMcB-iqKct5DBk3-8" value="Stage 9" style="rounded=0;whiteSpace=wrap;html=1;" vertex="1" parent="1">
          <mxGeometry x="470" y="440" width="100" height="40" as="geometry" />
        </mxCell>
        <mxCell id="3nR2WSMcB-iqKct5DBk3-36" style="edgeStyle=orthogonalEdgeStyle;rounded=0;orthogonalLoop=1;jettySize=auto;html=1;exitX=1;exitY=0.5;exitDx=0;exitDy=0;entryX=0;entryY=0.5;entryDx=0;entryDy=0;" edge="1" parent="1" source="3nR2WSMcB-iqKct5DBk3-9" target="3nR2WSMcB-iqKct5DBk3-18">
          <mxGeometry relative="1" as="geometry" />
        </mxCell>
        <mxCell id="3nR2WSMcB-iqKct5DBk3-9" value="Stage 12" style="rounded=0;whiteSpace=wrap;html=1;" vertex="1" parent="1">
          <mxGeometry x="470" y="260" width="100" height="40" as="geometry" />
        </mxCell>
        <mxCell id="3nR2WSMcB-iqKct5DBk3-30" style="edgeStyle=orthogonalEdgeStyle;rounded=0;orthogonalLoop=1;jettySize=auto;html=1;exitX=0.5;exitY=0;exitDx=0;exitDy=0;entryX=0.5;entryY=1;entryDx=0;entryDy=0;" edge="1" parent="1" source="3nR2WSMcB-iqKct5DBk3-10" target="3nR2WSMcB-iqKct5DBk3-5">
          <mxGeometry relative="1" as="geometry" />
        </mxCell>
        <mxCell id="3nR2WSMcB-iqKct5DBk3-10" value="Stage 7" style="rounded=0;whiteSpace=wrap;html=1;" vertex="1" parent="1">
          <mxGeometry x="470" y="565" width="100" height="40" as="geometry" />
        </mxCell>
        <mxCell id="3nR2WSMcB-iqKct5DBk3-29" style="edgeStyle=orthogonalEdgeStyle;rounded=0;orthogonalLoop=1;jettySize=auto;html=1;exitX=1;exitY=0.5;exitDx=0;exitDy=0;entryX=0;entryY=0.5;entryDx=0;entryDy=0;" edge="1" parent="1" source="3nR2WSMcB-iqKct5DBk3-11" target="3nR2WSMcB-iqKct5DBk3-10">
          <mxGeometry relative="1" as="geometry" />
        </mxCell>
        <mxCell id="3nR2WSMcB-iqKct5DBk3-11" value="Stage 6" style="rounded=0;whiteSpace=wrap;html=1;" vertex="1" parent="1">
          <mxGeometry x="340" y="565" width="100" height="40" as="geometry" />
        </mxCell>
        <mxCell id="3nR2WSMcB-iqKct5DBk3-24" style="edgeStyle=orthogonalEdgeStyle;rounded=0;orthogonalLoop=1;jettySize=auto;html=1;exitX=0.5;exitY=1;exitDx=0;exitDy=0;entryX=0.5;entryY=0;entryDx=0;entryDy=0;" edge="1" parent="1" source="3nR2WSMcB-iqKct5DBk3-12" target="3nR2WSMcB-iqKct5DBk3-13">
          <mxGeometry relative="1" as="geometry" />
        </mxCell>
        <mxCell id="3nR2WSMcB-iqKct5DBk3-12" value="Stage 1" style="rounded=0;whiteSpace=wrap;html=1;" vertex="1" parent="1">
          <mxGeometry x="340" y="260" width="100" height="40" as="geometry" />
        </mxCell>
        <mxCell id="3nR2WSMcB-iqKct5DBk3-25" style="edgeStyle=orthogonalEdgeStyle;rounded=0;orthogonalLoop=1;jettySize=auto;html=1;exitX=0.5;exitY=1;exitDx=0;exitDy=0;entryX=0.5;entryY=0;entryDx=0;entryDy=0;" edge="1" parent="1" source="3nR2WSMcB-iqKct5DBk3-13" target="3nR2WSMcB-iqKct5DBk3-14">
          <mxGeometry relative="1" as="geometry" />
        </mxCell>
        <mxCell id="3nR2WSMcB-iqKct5DBk3-13" value="Stage 2" style="rounded=0;whiteSpace=wrap;html=1;" vertex="1" parent="1">
          <mxGeometry x="340" y="320" width="100" height="40" as="geometry" />
        </mxCell>
        <mxCell id="3nR2WSMcB-iqKct5DBk3-26" style="edgeStyle=orthogonalEdgeStyle;rounded=0;orthogonalLoop=1;jettySize=auto;html=1;exitX=0.5;exitY=1;exitDx=0;exitDy=0;entryX=0.5;entryY=0;entryDx=0;entryDy=0;" edge="1" parent="1" source="3nR2WSMcB-iqKct5DBk3-14" target="3nR2WSMcB-iqKct5DBk3-15">
          <mxGeometry relative="1" as="geometry" />
        </mxCell>
        <mxCell id="3nR2WSMcB-iqKct5DBk3-14" value="Stage 3" style="rounded=0;whiteSpace=wrap;html=1;" vertex="1" parent="1">
          <mxGeometry x="340" y="380" width="100" height="40" as="geometry" />
        </mxCell>
        <mxCell id="3nR2WSMcB-iqKct5DBk3-27" style="edgeStyle=orthogonalEdgeStyle;rounded=0;orthogonalLoop=1;jettySize=auto;html=1;exitX=0.5;exitY=1;exitDx=0;exitDy=0;entryX=0.5;entryY=0;entryDx=0;entryDy=0;" edge="1" parent="1" source="3nR2WSMcB-iqKct5DBk3-15" target="3nR2WSMcB-iqKct5DBk3-16">
          <mxGeometry relative="1" as="geometry" />
        </mxCell>
        <mxCell id="3nR2WSMcB-iqKct5DBk3-15" value="Stage 4" style="rounded=0;whiteSpace=wrap;html=1;" vertex="1" parent="1">
          <mxGeometry x="340" y="440" width="100" height="40" as="geometry" />
        </mxCell>
        <mxCell id="3nR2WSMcB-iqKct5DBk3-28" style="edgeStyle=orthogonalEdgeStyle;rounded=0;orthogonalLoop=1;jettySize=auto;html=1;exitX=0.5;exitY=1;exitDx=0;exitDy=0;entryX=0.5;entryY=0;entryDx=0;entryDy=0;" edge="1" parent="1" source="3nR2WSMcB-iqKct5DBk3-16" target="3nR2WSMcB-iqKct5DBk3-11">
          <mxGeometry relative="1" as="geometry" />
        </mxCell>
        <mxCell id="3nR2WSMcB-iqKct5DBk3-16" value="Stage 5" style="rounded=0;whiteSpace=wrap;html=1;" vertex="1" parent="1">
          <mxGeometry x="340" y="500" width="100" height="40" as="geometry" />
        </mxCell>
        <mxCell id="3nR2WSMcB-iqKct5DBk3-37" style="edgeStyle=orthogonalEdgeStyle;rounded=0;orthogonalLoop=1;jettySize=auto;html=1;exitX=0.5;exitY=1;exitDx=0;exitDy=0;entryX=0.5;entryY=0;entryDx=0;entryDy=0;" edge="1" parent="1" source="3nR2WSMcB-iqKct5DBk3-18" target="3nR2WSMcB-iqKct5DBk3-19">
          <mxGeometry relative="1" as="geometry" />
        </mxCell>
        <mxCell id="3nR2WSMcB-iqKct5DBk3-18" value="Stage 13" style="rounded=0;whiteSpace=wrap;html=1;" vertex="1" parent="1">
          <mxGeometry x="600" y="260" width="100" height="40" as="geometry" />
        </mxCell>
        <mxCell id="3nR2WSMcB-iqKct5DBk3-40" style="edgeStyle=orthogonalEdgeStyle;rounded=0;orthogonalLoop=1;jettySize=auto;html=1;exitX=1;exitY=0.5;exitDx=0;exitDy=0;entryX=0.5;entryY=1;entryDx=0;entryDy=0;" edge="1" parent="1" source="3nR2WSMcB-iqKct5DBk3-19" target="3nR2WSMcB-iqKct5DBk3-21">
          <mxGeometry relative="1" as="geometry" />
        </mxCell>
        <mxCell id="3nR2WSMcB-iqKct5DBk3-19" value="Boss" style="rounded=0;whiteSpace=wrap;html=1;" vertex="1" parent="1">
          <mxGeometry x="600" y="320" width="100" height="40" as="geometry" />
        </mxCell>
        <mxCell id="3nR2WSMcB-iqKct5DBk3-21" value="Finish" style="rounded=0;whiteSpace=wrap;html=1;" vertex="1" parent="1">
          <mxGeometry x="727" y="260" width="100" height="40" as="geometry" />
        </mxCell>
      </root>
    </mxGraphModel>
  </diagram>
</mxfile>
